inDegrees=no
num_controls=7
num_derivatives=13
num_iterations=112
num_multipliers=7
num_parameters=0
num_slacks=7
num_states=26
objective=4.189267
objective_accelerations=0.297418
objective_balance=0.079803
objective_effort=0.295176
objective_height=3.434844
objective_ligament=0.082026
solver_duration=1215.249949
status=Solve_Succeeded
success=true
DataType=double
version=3
OpenSimVersion=4.4-2022-07-23-0e9fedc
endheader
time	/jointset/ground_pelvis/pelvis_tilt/value	/jointset/ground_pelvis/pelvis_tx/value	/jointset/ground_pelvis/pelvis_ty/value	/jointset/hip_l/hip_flexion_l/value	/jointset/hip_l/hip_adduction_l/value	/jointset/hip_l/hip_rotation_l/value	/jointset/back/lumbar_extension/value	/jointset/patellofemoral_l/patellar_flexion_l/value	/jointset/knee_l/knee_flexion_l/value	/jointset/knee_l/knee_adduction_l/value	/jointset/knee_l/knee_rotation_l/value	/jointset/ankle_l/ankle_angle_l/value	/jointset/subtalar_l/subtalar_angle_l/value	/jointset/ground_pelvis/pelvis_tilt/speed	/jointset/ground_pelvis/pelvis_tx/speed	/jointset/ground_pelvis/pelvis_ty/speed	/jointset/hip_l/hip_flexion_l/speed	/jointset/hip_l/hip_adduction_l/speed	/jointset/hip_l/hip_rotation_l/speed	/jointset/back/lumbar_extension/speed	/jointset/patellofemoral_l/patellar_flexion_l/speed	/jointset/knee_l/knee_flexion_l/speed	/jointset/knee_l/knee_adduction_l/speed	/jointset/knee_l/knee_rotation_l/speed	/jointset/ankle_l/ankle_angle_l/speed	/jointset/subtalar_l/subtalar_angle_l/speed	/forceset/tau_hip_flexion_l	/forceset/tau_hip_adduction_l	/forceset/tau_hip_rotation_l	/forceset/tau_knee_flexion_l	/forceset/tau_ankle_angle_l	/forceset/tau_subtalar_angle_l	/forceset/tau_lumbar_extension	lambda_cid13_p0	lambda_cid13_p1	lambda_cid13_p2	lambda_cid13_p3	lambda_cid13_p4	lambda_cid13_p5	lambda_cid14_p0	/jointset/ground_pelvis/pelvis_tilt/accel	/jointset/ground_pelvis/pelvis_tx/accel	/jointset/ground_pelvis/pelvis_ty/accel	/jointset/hip_l/hip_flexion_l/accel	/jointset/hip_l/hip_adduction_l/accel	/jointset/hip_l/hip_rotation_l/accel	/jointset/back/lumbar_extension/accel	/jointset/patellofemoral_l/patellar_flexion_l/accel	/jointset/knee_l/knee_flexion_l/accel	/jointset/knee_l/knee_adduction_l/accel	/jointset/knee_l/knee_rotation_l/accel	/jointset/ankle_l/ankle_angle_l/accel	/jointset/subtalar_l/subtalar_angle_l/accel	gamma_cid13_p0	gamma_cid13_p1	gamma_cid13_p2	gamma_cid13_p3	gamma_cid13_p4	gamma_cid13_p5	gamma_cid14_p0
1.5	-0.2536254356520355	0.02292889893289089	0.8158764838148419	0.9006603824792017	-0.3041575444860606	-0.05055956382684838	-0.3079386296748557	0.6573732149460427	0.6573732149460874	-0.170247622381806	0.174507624274944	0.1845883255016374	-0.01187567566613288	0.2121786687784256	0.06228627395916432	0.3099995131548957	-1.372716047760837	0.02918427677995029	-0.5924368089338495	0.5838901460216258	-1.669759739608035	-1.669759739608051	0.01073471565453905	-0.0001404260242365313	-0.617162369770065	-0.07925474264062375	-0.1430679599259221	0.03278289222238059	-0.02507315387099822	-0.2266729274521126	0.03609411156830037	0.04102238103139663	0.1574583457491661	-26.714432782361	-17.4949831035525	7.362892531251891	5.584168205958317	-612.5561119783271	-61.48273652694906	-30.10951898010378	0.2232761923862005	0.2108125970324194	-0.2825848703583742	-0.8442527057969258	0.474663881627077	-0.3743594976268125	1.072498476712307	-1.015462439964113	-1.015462439963971	-0.05427227307488579	-0.01614699121520222	-0.3970660547606136	0.4666183697905878	2.111618066632126e-07	9.197423239981545e-07	-1.132210041932391e-06	-1.768232218745784e-08	2.048860277194741e-07	8.34371723904707e-07	2.227152712681468e-07
1.51	-0.2514925772055196	0.02356223565992695	0.8189617239287773	0.8868926237585301	-0.3038424960877035	-0.05650231334848803	-0.3020470357041544	0.6406271034067945	0.6406271034067531	-0.170144189265635	0.1745065117485794	0.1783974999612906	-0.01264557649275988	0.2143717583643446	0.06437117313467781	0.3069882276792101	-1.380641216070147	0.03383646940261531	-0.5960131778764132	0.594343528516923	-1.679225252593693	-1.679225252593605	0.009929718469785773	-9.443223884415521e-05	-0.6209126007430223	-0.07471328435785562	-0.1386851304155478	0.03161145018143388	-0.02494227934714188	-0.2247796966304682	0.03959785725122056	0.04032503080466843	0.1536104079842566	-25.49399797886584	-17.46922787466068	7.431220863309877	5.172986964603846	-610.0145445172699	-61.68247953274024	-31.02733603369224	0.2141464675212307	0.2058613960196195	-0.3194190066054653	-0.7374651808925848	0.4621306147377279	-0.3341231369574903	1.018990195432393	-0.8765300674426807	-0.8765300674271895	-0.09679410456310886	0.01323295123020916	-0.3504606192708527	0.4496049399879442	1.309831855333266e-07	1.117112313278451e-06	-7.597472555204239e-07	5.195258187350783e-08	1.477805287018085e-07	8.06691482708864e-07	1.802897273886709e-07
1.52	-0.2493384236379907	0.02421612794236004	0.8220150474638696	0.8730514500973015	-0.3034805990306767	-0.06247779606844681	-0.2960534614965976	0.6237934498697717	0.6237934498696462	-0.1700494422539853	0.1745055112376456	0.1721718803110699	-0.01336972366006526	0.2164376929833632	0.06639738503856898	0.3036161973862605	-1.387399035875209	0.03855400851135161	-0.5989834485944416	0.604286193391988	-1.6872681391624	-1.68726813916221	0.008997494749534584	-0.0001180229409026491	-0.6241211917442868	-0.07010401077636352	-0.134302300905025	0.03044000814045241	-0.02481140482314249	-0.222886465808846	0.04310160293410806	0.03962768057788929	0.1497624702195028	-24.28078487951462	-17.44468772256819	7.502575949333184	4.765592062524806	-607.5973000185594	-61.93154338887311	-31.92378502726072	0.1978451990059556	0.1990751427080215	-0.3547338338111936	-0.6107830049471539	0.4877331788413097	-0.253139852719918	0.970354952665769	-0.7309371565741266	-0.7309371565741434	-0.07971758017448796	-0.03006388870525002	-0.2887380604219502	0.4801814295353621	8.685967275575492e-08	1.245795330520556e-06	-5.626166757286036e-07	9.20925833938616e-08	1.180019065646316e-07	8.023003444570976e-07	1.594338698748263e-07
1.53	-0.2471642852639909	0.02488997563409897	0.8250328875461287	0.8591485917883145	-0.3030712361037836	-0.06848025803653492	-0.2899630742262507	0.6068865824828158	0.6068865824827148	-0.1699644707910907	0.174504172307081	0.1659169294047449	-0.01404745955642674	0.2183643713098313	0.06836058816904472	0.299895710233176	-1.39296968039085	0.04332746150995975	-0.6014227271000309	0.6136997935172465	-1.693858057633093	-1.69385805763307	0.007990014800167656	-0.0001505234816918982	-0.6267734843796279	-0.06543215005859955	-0.1297855008107108	0.02900591320321164	-0.02472478760983786	-0.2211509419324593	0.04687233388768422	0.0389147708719985	0.1458168823734805	-22.98362141087545	-17.43021485054121	7.577963309431491	4.30199779619995	-605.2076837231926	-62.24230708433584	-32.79494250617564	0.1862467378631139	0.1932292487019191	-0.3890991089274674	-0.4997532081550033	0.4734392213099841	-0.2262191613765012	0.9131424681201207	-0.5859596229551041	-0.5859596229799908	-0.1121156662958998	0.01015625111925207	-0.2391281370827999	0.4621957108887482	8.104471260251673e-08	1.301498439972081e-06	-5.517765654706867e-07	1.008942509648156e-07	1.172580911129734e-07	8.226538780834125e-07	1.614958041244648e-07
1.54	-0.2449716465890585	0.0255831126272397	0.8280118441662828	0.8451961174275342	-0.3026138810747058	-0.07450449225207845	-0.2837812949695125	0.5899212278250304	0.5899212278249359	-0.1698897446204861	0.1745025082486822	0.1596383249176637	-0.01467817538201201	0.2201377531721775	0.07025524531892778	0.2958395049653046	-1.397322246237754	0.0481524289461657	-0.6033378980815524	0.6225645906690843	-1.69896559332932	-1.698965593329463	0.006948436291676728	-0.0001830485070807982	-0.6288519078946782	-0.06069999662115991	-0.1252687007162175	0.0275718182659048	-0.02463817039648903	-0.2194154180560883	0.05064306484121361	0.03820186116602266	0.1418712945276566	-21.69414916915256	-17.4162769453897	7.655585930727272	3.843895660392254	-602.9502747929108	-62.60259512765499	-33.63692757993682	0.167185906181361	0.1853659465895771	-0.421877456768592	-0.3671672711999996	0.4980360663608441	-0.148318347906488	0.8605943579815174	-0.4344606016807185	-0.4344606016807239	-0.08653729199931688	-0.03006878562503997	-0.173964236363687	0.4922399734704792	7.514199749366326e-08	1.356683941930982e-06	-5.43799994487577e-07	1.093476733578123e-07	1.166016055854346e-07	8.427399866121121e-07	1.638471747321947e-07
1.55	-0.2427620451333811	0.0262948327765425	0.8309486062986373	0.8312062312774943	-0.3021080899669125	-0.08054533744569445	-0.2775136983260312	0.5729122799620999	0.5729122799621095	-0.169825613778943	0.1745006079318704	0.1533418302928116	-0.01526132968969586	0.2217562103736883	0.07207484030736998	0.2914615578254765	-1.400447098932614	0.05300911354624312	-0.6047376252937235	0.6308540492454103	-1.702569720558731	-1.702569720558924	0.005870345839566508	-0.0002015997896569032	-0.6303481610743871	-0.05592484942559395	-0.1206694309271581	0.02605059631834684	-0.02458896137588073	-0.217763381505853	0.05459046545500122	0.03734851056987277	0.1378637816711735	-20.3541596374834	-17.34588778438952	7.71929294206966	3.364067507153973	-600.7303838569006	-62.88289831881755	-34.44583453036437	0.1552341155468723	0.178189014817828	-0.4534347472046051	-0.2539531666412055	0.4799207938765341	-0.1215963664514145	0.7980182898217829	-0.2852835837384948	-0.2852835837457305	-0.1193713369354707	0.01168047916239744	-0.1226064899945807	0.4708907568337352	6.913817341420957e-08	1.411273070039685e-06	-5.391227187558751e-07	1.173998567414234e-07	1.160457393182944e-07	8.625179749196464e-07	1.665320263612038e-07
